<svg xmlns="http://www.w3.org/2000/svg" width="1280" height="920" font-family="sans-serif" font-size="12">
<rect width="1280" height="920" fill="white"/>
<text x="640" y="24" text-anchor="middle" font-size="14" font-weight="bold">H11F1M model — Typical Performance Curves (from spice_models/H11F1.spice.txt)</text>
<text x="640" y="40" text-anchor="middle" font-size="11" fill="#555">R_typ_16mA = 100.0 Ω at I_F=16 mA, I_46=5 µA RMS, T_A=25°C</text>
<g>
<rect x="30" y="60" width="590" height="380" fill="#fefefe" stroke="#bbb"/>
<text x="325.0" y="78" text-anchor="middle" font-size="11" font-weight="bold">Figure 1.  Resistance vs Input Current  (normalized to I_F=16 mA, I_46=5 µA RMS)</text>
<line x1="90.0" y1="90" x2="90.0" y2="410" stroke="#eee"/>
<text x="90.0" y="424" text-anchor="middle" font-size="9" fill="#555">1</text>
<line x1="166.7626488943152" y1="90" x2="166.7626488943152" y2="410" stroke="#f5f5f5"/>
<line x1="211.66591995351394" y1="90" x2="211.66591995351394" y2="410" stroke="#f5f5f5"/>
<line x1="268.2373511056848" y1="90" x2="268.2373511056848" y2="410" stroke="#f5f5f5"/>
<line x1="345.0" y1="90" x2="345.0" y2="410" stroke="#eee"/>
<text x="345.0" y="424" text-anchor="middle" font-size="9" fill="#555">10</text>
<line x1="421.76264889431525" y1="90" x2="421.76264889431525" y2="410" stroke="#f5f5f5"/>
<line x1="466.66591995351394" y1="90" x2="466.66591995351394" y2="410" stroke="#f5f5f5"/>
<line x1="523.2373511056848" y1="90" x2="523.2373511056848" y2="410" stroke="#f5f5f5"/>
<line x1="600.0" y1="90" x2="600.0" y2="410" stroke="#eee"/>
<text x="600.0" y="424" text-anchor="middle" font-size="9" fill="#555">100</text>
<line x1="90" y1="410.0" x2="600" y2="410.0" stroke="#eee"/>
<text x="86" y="413.0" text-anchor="end" font-size="9" fill="#555">0.1</text>
<line x1="90" y1="371.11227965569424" x2="600" y2="371.11227965569424" stroke="#f5f5f5"/>
<line x1="90" y1="348.3644215157442" x2="600" y2="348.3644215157442" stroke="#f5f5f5"/>
<line x1="90" y1="319.70550958643366" x2="600" y2="319.70550958643366" stroke="#f5f5f5"/>
<line x1="90" y1="280.8177892421279" x2="600" y2="280.8177892421279" stroke="#eee"/>
<text x="86" y="283.8177892421279" text-anchor="end" font-size="9" fill="#555">1</text>
<line x1="90" y1="241.9300688978222" x2="600" y2="241.9300688978222" stroke="#f5f5f5"/>
<line x1="90" y1="219.18221075787213" x2="600" y2="219.18221075787213" stroke="#f5f5f5"/>
<line x1="90" y1="190.52329882856156" x2="600" y2="190.52329882856156" stroke="#f5f5f5"/>
<line x1="90" y1="151.6355784842558" x2="600" y2="151.6355784842558" stroke="#eee"/>
<text x="86" y="154.6355784842558" text-anchor="end" font-size="9" fill="#555">10</text>
<line x1="90" y1="112.7478581399501" x2="600" y2="112.7478581399501" stroke="#f5f5f5"/>
<line x1="90" y1="90.0" x2="600" y2="90.0" stroke="#f5f5f5"/>
<rect x="90" y="90" width="510" height="320" fill="none" stroke="#666"/>
<text x="345.0" y="434" text-anchor="middle" font-size="10">I_F, INPUT CURRENT (mA)</text>
<text x="44" y="250.0" text-anchor="middle" font-size="10" transform="rotate(-90,44,250.0)">r(on), NORMALIZED RESISTANCE</text>
<polyline points="90.00,141.20 102.75,149.00 115.50,156.79 128.25,164.57 141.00,172.35 153.75,180.11 166.50,187.88 179.25,195.64 192.00,203.39 204.75,211.15 217.50,218.90 230.25,226.66 243.00,234.41 255.75,238.58 268.50,242.39 281.25,246.20 294.00,250.01 306.75,253.82 319.50,257.64 332.25,261.45 345.00,265.26 357.75,269.07 370.50,272.88 383.25,276.69 396.00,280.50 408.75,280.82 421.50,280.82 434.25,280.82 447.00,280.82 459.75,280.82 472.50,280.82 485.25,280.82 498.00,280.82 510.75,280.82 523.50,280.82 536.25,280.82 549.00,280.82 561.75,280.82 574.50,280.82 587.25,280.82 600.00,280.82" fill="none" stroke="#000" stroke-width="1.6"/>
<rect x="574" y="95" width="14" height="3" fill="#000"/>
<text x="570" y="99" text-anchor="end" font-size="9">model</text>
</g>
<g>
<rect x="650" y="60" width="590" height="380" fill="#fefefe" stroke="#bbb"/>
<text x="945.0" y="78" text-anchor="middle" font-size="11" font-weight="bold">Figure 2.  Output Characteristics</text>
<line x1="710.0" y1="90" x2="710.0" y2="410" stroke="#eee"/>
<text x="710.0" y="424" text-anchor="middle" font-size="9" fill="#555">-0.2</text>
<line x1="812.0" y1="90" x2="812.0" y2="410" stroke="#eee"/>
<text x="812.0" y="424" text-anchor="middle" font-size="9" fill="#555">-0.12</text>
<line x1="914.0" y1="90" x2="914.0" y2="410" stroke="#eee"/>
<text x="914.0" y="424" text-anchor="middle" font-size="9" fill="#555">-0.04</text>
<line x1="1016.0" y1="90" x2="1016.0" y2="410" stroke="#eee"/>
<text x="1016.0" y="424" text-anchor="middle" font-size="9" fill="#555">0.04</text>
<line x1="1118.0" y1="90" x2="1118.0" y2="410" stroke="#eee"/>
<text x="1118.0" y="424" text-anchor="middle" font-size="9" fill="#555">0.12</text>
<line x1="1220.0" y1="90" x2="1220.0" y2="410" stroke="#eee"/>
<text x="1220.0" y="424" text-anchor="middle" font-size="9" fill="#555">0.2</text>
<line x1="710" y1="90.0" x2="1220" y2="90.0" stroke="#eee"/>
<text x="706" y="93.0" text-anchor="end" font-size="9" fill="#555">900</text>
<line x1="710" y1="170.0" x2="1220" y2="170.0" stroke="#eee"/>
<text x="706" y="173.0" text-anchor="end" font-size="9" fill="#555">450</text>
<line x1="710" y1="250.0" x2="1220" y2="250.0" stroke="#eee"/>
<text x="706" y="253.0" text-anchor="end" font-size="9" fill="#555">0</text>
<line x1="710" y1="330.0" x2="1220" y2="330.0" stroke="#eee"/>
<text x="706" y="333.0" text-anchor="end" font-size="9" fill="#555">-450</text>
<line x1="710" y1="410.0" x2="1220" y2="410.0" stroke="#eee"/>
<text x="706" y="413.0" text-anchor="end" font-size="9" fill="#555">-900</text>
<rect x="710" y="90" width="510" height="320" fill="none" stroke="#666"/>
<text x="965.0" y="434" text-anchor="middle" font-size="10">V_46, OUTPUT VOLTAGE (V)</text>
<text x="664" y="250.0" text-anchor="middle" font-size="10" transform="rotate(-90,664,250.0)">I_46, OUTPUT CURRENT (µA)</text>
<line x1="710" y1="250.0" x2="1220" y2="250.0" stroke="#aaa" stroke-dasharray="2,2"/>
<line x1="965.0" y1="90" x2="965.0" y2="410" stroke="#aaa" stroke-dasharray="2,2"/>
<polyline points="710.00,269.37 722.75,269.35 735.50,269.33 748.25,269.30 761.00,269.26 773.75,269.20 786.50,269.12 799.25,269.00 812.00,268.83 824.75,268.60 837.50,268.27 850.25,267.82 863.00,267.19 875.75,266.34 888.50,265.19 901.25,263.68 914.00,261.75 926.75,259.36 939.50,256.54 952.25,253.37 965.00,250.00 977.75,246.63 990.50,243.46 1003.25,240.64 1016.00,238.25 1028.75,236.32 1041.50,234.81 1054.25,233.66 1067.00,232.81 1079.75,232.18 1092.50,231.73 1105.25,231.40 1118.00,231.17 1130.75,231.00 1143.50,230.88 1156.25,230.80 1169.00,230.74 1181.75,230.70 1194.50,230.67 1207.25,230.65 1220.00,230.63" fill="none" stroke="#d00" stroke-width="1.6"/>
<rect x="718" y="95" width="14" height="3" fill="#d00"/>
<text x="736" y="99" text-anchor="start" font-size="9">I_F = 2 mA</text>
<polyline points="710.00,306.71 722.75,306.67 735.50,306.61 748.25,306.52 761.00,306.40 773.75,306.23 786.50,305.98 799.25,305.64 812.00,305.15 824.75,304.47 837.50,303.51 850.25,302.18 863.00,300.34 875.75,297.84 888.50,294.47 901.25,290.05 914.00,284.40 926.75,277.41 939.50,269.15 952.25,259.87 965.00,250.00 977.75,240.13 990.50,230.85 1003.25,222.59 1016.00,215.60 1028.75,209.95 1041.50,205.53 1054.25,202.16 1067.00,199.66 1079.75,197.82 1092.50,196.49 1105.25,195.53 1118.00,194.85 1130.75,194.36 1143.50,194.02 1156.25,193.77 1169.00,193.60 1181.75,193.48 1194.50,193.39 1207.25,193.33 1220.00,193.29" fill="none" stroke="#f80" stroke-width="1.6"/>
<rect x="718" y="109" width="14" height="3" fill="#f80"/>
<text x="736" y="113" text-anchor="start" font-size="9">I_F = 6 mA</text>
<polyline points="710.00,326.66 722.75,326.60 735.50,326.52 748.25,326.40 761.00,326.24 773.75,326.00 786.50,325.67 799.25,325.21 812.00,324.55 824.75,323.62 837.50,322.33 850.25,320.53 863.00,318.05 875.75,314.66 888.50,310.12 901.25,304.14 914.00,296.50 926.75,287.06 939.50,275.89 952.25,263.34 965.00,250.00 977.75,236.66 990.50,224.11 1003.25,212.94 1016.00,203.50 1028.75,195.86 1041.50,189.88 1054.25,185.34 1067.00,181.95 1079.75,179.47 1092.50,177.67 1105.25,176.38 1118.00,175.45 1130.75,174.79 1143.50,174.33 1156.25,174.00 1169.00,173.76 1181.75,173.60 1194.50,173.48 1207.25,173.40 1220.00,173.34" fill="none" stroke="#0a0" stroke-width="1.6"/>
<rect x="718" y="123" width="14" height="3" fill="#0a0"/>
<text x="736" y="127" text-anchor="start" font-size="9">I_F = 10 mA</text>
<polyline points="710.00,343.49 722.75,343.42 735.50,343.32 748.25,343.18 761.00,342.98 773.75,342.69 786.50,342.29 799.25,341.72 812.00,340.92 824.75,339.79 837.50,338.21 850.25,336.02 863.00,332.99 875.75,328.86 888.50,323.32 901.25,316.03 914.00,306.71 926.75,295.19 939.50,281.58 952.25,266.26 965.00,250.00 977.75,233.74 990.50,218.42 1003.25,204.81 1016.00,193.29 1028.75,183.97 1041.50,176.68 1054.25,171.14 1067.00,167.01 1079.75,163.98 1092.50,161.79 1105.25,160.21 1118.00,159.08 1130.75,158.28 1143.50,157.71 1156.25,157.31 1169.00,157.02 1181.75,156.82 1194.50,156.68 1207.25,156.58 1220.00,156.51" fill="none" stroke="#06c" stroke-width="1.6"/>
<rect x="718" y="137" width="14" height="3" fill="#06c"/>
<text x="736" y="141" text-anchor="start" font-size="9">I_F = 14 mA</text>
<polyline points="710.00,351.15 722.75,351.08 735.50,350.97 748.25,350.81 761.00,350.60 773.75,350.29 786.50,349.85 799.25,349.24 812.00,348.37 824.75,347.15 837.50,345.44 850.25,343.07 863.00,339.79 875.75,335.32 888.50,329.33 901.25,321.44 914.00,311.36 926.75,298.90 939.50,284.16 952.25,267.60 965.00,250.00 977.75,232.40 990.50,215.84 1003.25,201.10 1016.00,188.64 1028.75,178.56 1041.50,170.67 1054.25,164.68 1067.00,160.21 1079.75,156.93 1092.50,154.56 1105.25,152.85 1118.00,151.63 1130.75,150.76 1143.50,150.15 1156.25,149.71 1169.00,149.40 1181.75,149.19 1194.50,149.03 1207.25,148.92 1220.00,148.85" fill="none" stroke="#80c" stroke-width="1.6"/>
<rect x="718" y="151" width="14" height="3" fill="#80c"/>
<text x="736" y="155" text-anchor="start" font-size="9">I_F = 18 mA</text>
</g>
<g>
<rect x="30" y="470" width="590" height="380" fill="#fefefe" stroke="#bbb"/>
<text x="325.0" y="488" text-anchor="middle" font-size="11" font-weight="bold">Figure 3.  LED Forward Voltage vs Forward Current</text>
<line x1="90.0" y1="500" x2="90.0" y2="820" stroke="#eee"/>
<text x="90.0" y="834" text-anchor="middle" font-size="9" fill="#555">0.1</text>
<line x1="141.1750992628768" y1="500" x2="141.1750992628768" y2="820" stroke="#f5f5f5"/>
<line x1="171.1106133023426" y1="500" x2="171.1106133023426" y2="820" stroke="#f5f5f5"/>
<line x1="208.8249007371232" y1="500" x2="208.8249007371232" y2="820" stroke="#f5f5f5"/>
<line x1="260.0" y1="500" x2="260.0" y2="820" stroke="#eee"/>
<text x="260.0" y="834" text-anchor="middle" font-size="9" fill="#555">1</text>
<line x1="311.1750992628768" y1="500" x2="311.1750992628768" y2="820" stroke="#f5f5f5"/>
<line x1="341.1106133023426" y1="500" x2="341.1106133023426" y2="820" stroke="#f5f5f5"/>
<line x1="378.8249007371232" y1="500" x2="378.8249007371232" y2="820" stroke="#f5f5f5"/>
<line x1="430.0" y1="500" x2="430.0" y2="820" stroke="#eee"/>
<text x="430.0" y="834" text-anchor="middle" font-size="9" fill="#555">10</text>
<line x1="481.1750992628768" y1="500" x2="481.1750992628768" y2="820" stroke="#f5f5f5"/>
<line x1="511.11061330234264" y1="500" x2="511.11061330234264" y2="820" stroke="#f5f5f5"/>
<line x1="548.8249007371232" y1="500" x2="548.8249007371232" y2="820" stroke="#f5f5f5"/>
<line x1="600.0" y1="500" x2="600.0" y2="820" stroke="#eee"/>
<text x="600.0" y="834" text-anchor="middle" font-size="9" fill="#555">100</text>
<line x1="90" y1="500.0" x2="600" y2="500.0" stroke="#eee"/>
<text x="86" y="503.0" text-anchor="end" font-size="9" fill="#555">2</text>
<line x1="90" y1="580.0" x2="600" y2="580.0" stroke="#eee"/>
<text x="86" y="583.0" text-anchor="end" font-size="9" fill="#555">1.65</text>
<line x1="90" y1="660.0" x2="600" y2="660.0" stroke="#eee"/>
<text x="86" y="663.0" text-anchor="end" font-size="9" fill="#555">1.3</text>
<line x1="90" y1="740.0" x2="600" y2="740.0" stroke="#eee"/>
<text x="86" y="743.0" text-anchor="end" font-size="9" fill="#555">0.95</text>
<line x1="90" y1="820.0" x2="600" y2="820.0" stroke="#eee"/>
<text x="86" y="823.0" text-anchor="end" font-size="9" fill="#555">0.6</text>
<rect x="90" y="500" width="510" height="320" fill="none" stroke="#666"/>
<text x="345.0" y="844" text-anchor="middle" font-size="10">I_F, LED FORWARD CURRENT (mA)</text>
<text x="44" y="660.0" text-anchor="middle" font-size="10" transform="rotate(-90,44,660.0)">V_F, FORWARD VOLTAGE (V)</text>
<polyline points="90.00,674.85 107.00,673.25 124.00,671.64 141.00,670.02 158.00,668.39 175.00,666.75 192.00,665.10 209.00,663.43 226.00,661.74 243.00,660.03 260.00,658.28 277.00,656.48 294.00,654.64 311.00,652.72 328.00,650.72 345.00,648.62 362.00,646.37 379.00,643.96 396.00,641.34 413.00,638.45 430.00,635.22 447.00,631.56 464.00,627.36 481.00,622.49 498.00,616.78 515.00,609.99 532.00,601.85 549.00,592.02 566.00,580.05 583.00,565.39 600.00,547.35" fill="none" stroke="#06c" stroke-width="1.6"/>
<rect x="98" y="505" width="14" height="3" fill="#06c"/>
<text x="116" y="509" text-anchor="start" font-size="9">T_A = -40 °C</text>
<polyline points="90.00,715.21 107.00,713.17 124.00,711.11 141.00,709.05 158.00,706.98 175.00,704.90 192.00,702.81 209.00,700.70 226.00,698.57 243.00,696.41 260.00,694.21 277.00,691.98 294.00,689.69 311.00,687.33 328.00,684.89 345.00,682.34 362.00,679.66 379.00,676.81 396.00,673.74 413.00,670.40 430.00,666.73 447.00,662.63 464.00,657.99 481.00,652.68 498.00,646.52 515.00,639.29 532.00,630.71 549.00,620.44 566.00,608.03 583.00,592.93 600.00,574.45" fill="none" stroke="#000" stroke-width="1.6"/>
<rect x="98" y="519" width="14" height="3" fill="#000"/>
<text x="116" y="523" text-anchor="start" font-size="9">T_A = 25 °C</text>
<polyline points="90.00,762.82 107.00,760.26 124.00,757.70 141.00,755.13 158.00,752.55 175.00,749.96 192.00,747.35 209.00,744.73 226.00,742.09 243.00,739.42 260.00,736.72 277.00,733.97 294.00,731.17 311.00,728.31 328.00,725.35 345.00,722.29 362.00,719.10 379.00,715.74 396.00,712.16 413.00,708.32 430.00,704.13 447.00,699.52 464.00,694.38 481.00,688.55 498.00,681.88 515.00,674.14 532.00,665.05 549.00,654.27 566.00,641.35 583.00,625.74 600.00,606.75" fill="none" stroke="#d00" stroke-width="1.6"/>
<rect x="98" y="533" width="14" height="3" fill="#d00"/>
<text x="116" y="537" text-anchor="start" font-size="9">T_A = 100 °C</text>
</g>
<g>
<rect x="650" y="470" width="590" height="380" fill="#fefefe" stroke="#bbb"/>
<text x="945.0" y="488" text-anchor="middle" font-size="11" font-weight="bold">Figure 5.  Resistive Non-Linearity vs DC Bias  (I_F=16 mA, I_46=10 µA RMS)</text>
<line x1="710.0" y1="500" x2="710.0" y2="820" stroke="#eee"/>
<text x="710.0" y="834" text-anchor="middle" font-size="9" fill="#555">0</text>
<line x1="812.0" y1="500" x2="812.0" y2="820" stroke="#eee"/>
<text x="812.0" y="834" text-anchor="middle" font-size="9" fill="#555">80</text>
<line x1="914.0" y1="500" x2="914.0" y2="820" stroke="#eee"/>
<text x="914.0" y="834" text-anchor="middle" font-size="9" fill="#555">160</text>
<line x1="1016.0" y1="500" x2="1016.0" y2="820" stroke="#eee"/>
<text x="1016.0" y="834" text-anchor="middle" font-size="9" fill="#555">240</text>
<line x1="1118.0" y1="500" x2="1118.0" y2="820" stroke="#eee"/>
<text x="1118.0" y="834" text-anchor="middle" font-size="9" fill="#555">320</text>
<line x1="1220.0" y1="500" x2="1220.0" y2="820" stroke="#eee"/>
<text x="1220.0" y="834" text-anchor="middle" font-size="9" fill="#555">400</text>
<line x1="710" y1="500.0" x2="1220" y2="500.0" stroke="#eee"/>
<text x="706" y="503.0" text-anchor="end" font-size="9" fill="#555">5</text>
<line x1="710" y1="580.0" x2="1220" y2="580.0" stroke="#eee"/>
<text x="706" y="583.0" text-anchor="end" font-size="9" fill="#555">3.75</text>
<line x1="710" y1="660.0" x2="1220" y2="660.0" stroke="#eee"/>
<text x="706" y="663.0" text-anchor="end" font-size="9" fill="#555">2.5</text>
<line x1="710" y1="740.0" x2="1220" y2="740.0" stroke="#eee"/>
<text x="706" y="743.0" text-anchor="end" font-size="9" fill="#555">1.25</text>
<line x1="710" y1="820.0" x2="1220" y2="820.0" stroke="#eee"/>
<text x="706" y="823.0" text-anchor="end" font-size="9" fill="#555">0</text>
<rect x="710" y="500" width="510" height="320" fill="none" stroke="#666"/>
<text x="965.0" y="844" text-anchor="middle" font-size="10">V_46, D.C. BIAS VOLTAGE (mV)</text>
<text x="664" y="660.0" text-anchor="middle" font-size="10" transform="rotate(-90,664,660.0)">r(on), CHANGE IN RESISTANCE (%)</text>
<polyline points="722.75,820.00 773.75,-662.35 837.50,-4580.19 901.25,-9624.98 965.00,-15048.40 1028.75,-20574.27 1092.50,-26124.57 1156.25,-31680.26" fill="none" stroke="#000" stroke-width="1.6"/>
<rect x="718" y="505" width="14" height="3" fill="#000"/>
<text x="736" y="509" text-anchor="start" font-size="9">model</text>
<circle cx="722.75" cy="820.00" r="3" fill="#d00" stroke="white" stroke-width="0.5"/>
<circle cx="773.75" cy="-662.35" r="3" fill="#d00" stroke="white" stroke-width="0.5"/>
<circle cx="837.50" cy="-4580.19" r="3" fill="#d00" stroke="white" stroke-width="0.5"/>
<circle cx="901.25" cy="-9624.98" r="3" fill="#d00" stroke="white" stroke-width="0.5"/>
<circle cx="965.00" cy="-15048.40" r="3" fill="#d00" stroke="white" stroke-width="0.5"/>
<circle cx="1028.75" cy="-20574.27" r="3" fill="#d00" stroke="white" stroke-width="0.5"/>
<circle cx="1092.50" cy="-26124.57" r="3" fill="#d00" stroke="white" stroke-width="0.5"/>
<circle cx="1156.25" cy="-31680.26" r="3" fill="#d00" stroke="white" stroke-width="0.5"/>
<rect x="718" y="519" width="14" height="3" fill="#d00"/>
<text x="736" y="523" text-anchor="start" font-size="9">model points</text>
</g>
</svg>